<svg width="18" height="18" viewBox="0 0 18 18" fill="none" xmlns="http://www.w3.org/2000/svg">
<g clip-path="url(#clip0_3_45)">
<path fill-rule="evenodd" clip-rule="evenodd" d="M17.5828 5.17445C17.5416 4.23927 17.3903 3.5964 17.1737 3.03927C16.9502 2.44794 16.6064 1.91853 16.156 1.47841C15.7158 1.03145 15.1829 0.684127 14.5984 0.464153C14.0381 0.247548 13.3986 0.0962688 12.4634 0.0550795C11.5212 0.0103145 11.2222 0 8.83263 0C6.4431 0 6.14402 0.0103145 5.20536 0.0515726C4.27021 0.0928306 3.62731 0.244179 3.07036 0.460646C2.47886 0.684127 1.94945 1.02794 1.50933 1.47841C1.06237 1.9185 0.715214 2.45142 0.495067 3.03591C0.278463 3.5964 0.127217 4.23583 0.0859938 5.17094C0.0412632 6.1131 0.0309143 6.41219 0.0309143 8.80172C0.0309143 11.1912 0.0412632 11.4904 0.0824869 12.429C0.123745 13.3642 0.275093 14.007 0.491732 14.5642C0.715214 15.1555 1.06237 15.6849 1.50933 16.125C1.94945 16.572 2.48236 16.9193 3.06685 17.1393C3.62728 17.3559 4.26671 17.5072 5.20203 17.5484C6.14051 17.5898 6.43977 17.5999 8.8293 17.5999C11.2188 17.5999 11.5179 17.5898 12.4566 17.5484C13.3917 17.5071 14.0346 17.3559 14.5916 17.1393C15.1765 16.9131 15.7078 16.5672 16.1512 16.1238C16.5947 15.6803 16.9407 15.1491 17.1669 14.5642C17.3833 14.0037 17.5347 13.3641 17.5759 12.429C17.6172 11.4904 17.6275 11.1912 17.6275 8.80172C17.6275 6.41219 17.624 6.11307 17.5828 5.17445ZM15.9979 12.3602C15.96 13.2198 15.8156 13.6839 15.6953 13.9934C15.3995 14.7601 14.791 15.3686 14.0243 15.6644C13.7148 15.7847 13.2473 15.9291 12.3911 15.9668C11.4628 16.0082 11.1844 16.0184 8.83614 16.0184C6.48783 16.0184 6.20594 16.0082 5.28097 15.9668C4.42142 15.9291 3.95727 15.7847 3.64784 15.6644C3.2663 15.5233 2.91901 15.2999 2.63708 15.0076C2.34484 14.7222 2.12136 14.3784 1.98032 13.9969C1.85999 13.6874 1.71562 13.2198 1.6779 12.3637C1.63651 11.4354 1.62633 11.1569 1.62633 8.80856C1.62633 6.46026 1.63651 6.17836 1.6779 5.25356C1.71562 4.39402 1.85999 3.92986 1.98032 3.62043C2.12136 3.23872 2.34484 2.8915 2.64059 2.6095C2.92582 2.31726 3.26964 2.09378 3.65134 1.95292C3.96078 1.83258 4.42844 1.68818 5.28447 1.65032C6.21278 1.60906 6.49134 1.59875 8.83948 1.59875C11.1913 1.59875 11.4697 1.60906 12.3946 1.65032C13.2542 1.68821 13.7183 1.83255 14.0278 1.95288C14.4093 2.09378 14.7566 2.31726 15.0385 2.6095C15.3308 2.89491 15.5543 3.23872 15.6953 3.62043C15.8156 3.92986 15.96 4.39735 15.9979 5.25356C16.0391 6.18187 16.0494 6.46026 16.0494 8.80856C16.0494 11.1569 16.0391 11.4319 15.9979 12.3602Z" fill="#999999"/>
<path fill-rule="evenodd" clip-rule="evenodd" d="M8.83266 4.28053C6.33661 4.28053 4.31146 6.30554 4.31146 8.80173C4.31146 11.2979 6.33661 13.3229 8.83266 13.3229C11.3288 13.3229 13.3539 11.2979 13.3539 8.80173C13.3539 6.30554 11.3288 4.28053 8.83266 4.28053ZM8.83266 11.7345C7.21335 11.7345 5.89983 10.4212 5.89983 8.80173C5.89983 7.18228 7.21335 5.86897 8.83262 5.86897C10.4521 5.86897 11.7654 7.18228 11.7654 8.80173C11.7654 10.4212 10.452 11.7345 8.83266 11.7345ZM14.5882 4.10175C14.5882 4.68465 14.1156 5.15726 13.5326 5.15726C12.9497 5.15726 12.4771 4.68465 12.4771 4.10175C12.4771 3.51877 12.9497 3.0463 13.5326 3.0463C14.1156 3.0463 14.5882 3.51873 14.5882 4.10175Z" fill="#999999"/>
</g>
<defs>
<clipPath id="clip0_3_45">
<rect width="17.6" height="17.6" fill="white"/>
</clipPath>
</defs>
</svg>
