<svg width="18" height="18" viewBox="0 0 18 18" fill="none" xmlns="http://www.w3.org/2000/svg">
<path fill-rule="evenodd" clip-rule="evenodd" d="M8.51802 0.533112C5.40416 0.533112 2.87071 3.06653 2.87071 6.18042C2.87071 10.0943 8.52361 16.78 8.52361 16.78C8.52361 16.78 14.1654 9.90184 14.1654 6.18042C14.1654 3.06656 11.6321 0.533112 8.51802 0.533112ZM10.222 7.834C9.75212 8.30373 9.13515 8.53863 8.51805 8.53863C7.90105 8.53863 7.28387 8.30373 6.81423 7.834C5.87466 6.89452 5.87466 5.36582 6.81423 4.42624C7.2692 3.97108 7.87437 3.72042 8.51805 3.72042C9.1617 3.72042 9.7668 3.9712 10.222 4.42624C11.1615 5.36582 11.1615 6.8945 10.222 7.834Z" fill="#7B7B7B"/>
</svg>
